{"title":"The Devils Rejects 2005 DVDRip Xvid BigPerm LKRG","uid":5699627,"size":1216144612,"categoryP":"video","categoryS":"movies","magnet":"?xt=urn:btih:efb8c2f6999b46707f0d71897678413f99255973&amp;dn=The+Devils+Rejects+2005+DVDRip+Xvid+BigPerm+LKRG&amp;tr=udp%3A%2F%2Ftracker.openbittorrent.com%3A80&amp;tr=udp%3A%2F%2Fopen.demonii.com%3A1337&amp;tr=udp%3A%2F%2Ftracker.coppersurfer.tk%3A6969&amp;tr=udp%3A%2F%2Fexodus.desync.com%3A6969","seeders":2,"leechers":0,"uploader":null,"files":2,"time":1279449112,"description":"The Devils Rejects 2005 DVDRip Xvid BigPerm LKRG\n\nPlot:\n\nIn Ruggsville, Texas, the police under the command of Sheriff John Quincy Wydell attack the house of the sadistic serial killers Firefly family (a.k.a. The Devil's Reject) and they arrest mother Firefly, but Otis B. Driftwood and Baby Firefly escape from the siege. Tiny is wandering nearby the house and also escapes. Otis and Baby call their patriarch, the mad clown Captain Spaulding and they schedule to reunite at an isolated motel in the desert. When Otis and Baby arrive, they kidnap two families of singers, using sadism and violence against the harmless persons. Meanwhile, Sheriff Wydell promises to capture and kill the runaways, seeking revenge for the death of his brother, the Deputy George Wydell. \n\nCast:\n\nSid Haig.......................Captain Spaulding\nBill Moseley...................Otis\nSheri Moon Zombie..............Baby\nWilliam Forsythe...............Sheriff Wydell\nKen Foree......................Charlie Altamont\nMatthew McGrory................Tiny\nLeslie Easterbrook.............Mother Firefly\nGeoffrey Lewis.................Roy Sullivan\nPriscilla Barnes...............Gloria Sullivan\nDave Sheridan..................Officer Ray Dobson\nKate Norby.....................Wendy Banjo\nLew Temple.....................Adam Banjo\nDanny Trejo....................Rondo\nDallas Page....................Billy Ray Snapper\n\n\nGeneral:\n\nComplete name : The Devils Rejects 2005 DVDRip Xvid BigPerm LKRG\\TDRLKRG.avi\nFormat : AVI\nFormat/Info : Audio Video Interleave\nFormat profile : OpenDML\nFile size : 1.13 GiB\nDuration : 1h 50mn\nOverall bit rate : 1 463 Kbps\n\nVideo:\n\nID : 0\nFormat : MPEG-4 Visual\nFormat profile : Advanced Simple@L5\nFormat settings, BVOP : Yes\nFormat settings, QPel : No\nFormat settings, GMC : No warppoints\nFormat settings, Matrix : Default (H.263)\nCodec ID : XVID\nCodec ID/Hint : XviD\nDuration : 1h 50mn\nBit rate : 1 009 Kbps\nWidth : 700 pixels\nHeight : 392 pixels\nDisplay aspect ratio : 16:9\nFrame rate : 23.976 fps\nResolution : 8 bits\nColorimetry : 4:2:0\nScan type : Progressive\nBits/(Pixel*Frame) : 0.153\nStream size : 800 MiB (69%)\nWriting library : XviD 1.2.1 (UTC 2008-12-04)\n\nAudio\nID : 1\nFormat : AC-3\nFormat/Info : Audio Coding 3\nCodec ID : 2000\nDuration : 1h 50mn\nBit rate mode : Constant\nBit rate : 448 Kbps\nChannel(s) : 6 channels\nChannel positions : Front: L C R, Side: L R, LFE\nSampling rate : 48.0 KHz\nResolution : 16 bits\nVideo delay : 42ms\nStream size : 355 MiB (31%)\nAlignment : Split accross interleaves\nLanguage : English","torrent":{"xt":"urn:btih:efb8c2f6999b46707f0d71897678413f99255973","amp;dn":"The+Devils+Rejects+2005+DVDRip+Xvid+BigPerm+LKRG","amp;tr":["udp%3A%2F%2Ftracker.openbittorrent.com%3A80","udp%3A%2F%2Fopen.demonii.com%3A1337","udp%3A%2F%2Ftracker.coppersurfer.tk%3A6969","udp%3A%2F%2Fexodus.desync.com%3A6969"],"infoHash":"efb8c2f6999b46707f0d71897678413f99255973","infoHashBuffer":{"type":"Buffer","data":[239,184,194,246,153,155,70,112,127,13,113,137,118,120,65,63,153,37,89,115]},"announce":[],"urlList":[]}}